<svg 
    width="54" 
    height="43" 
    xmlns="http://www.w3.org/2000/svg" 
    xmlns:xlink="http://www.w3.org/1999/xlink" 
    xml:space="preserve" 
    overflow="hidden"
>
    <defs>
        <clipPath id="clip0">
            <rect x="-2" y="-1" width="54" height="43"/>
        </clipPath>
        <clipPath id="clip1">
            <rect x="0" y="14" width="20" height="19"/>
        </clipPath>
        <clipPath id="clip2">
            <rect x="0" y="14" width="20" height="19"/>
        </clipPath>
        <clipPath id="clip3">
            <rect x="0" y="14" width="20" height="19"/>
        </clipPath>
        <clipPath id="clip4">
            <rect x="30" y="14" width="21" height="19"/>
        </clipPath>
        <clipPath id="clip5">
            <rect x="30" y="14" width="21" height="19"/>
        </clipPath>
        <clipPath id="clip6">
            <rect x="30" y="14" width="21" height="19"/>
        </clipPath>
    </defs>
    
    <g clip-path="url(#clip0)" transform="translate(2 1)"><path d="M15.0001 15.5 19.2502 6.99987 30.75 6.99987 35.0001 15.5 30.75 24.0001 19.2502 24.0001Z" fill-rule="evenodd"/><path d="M30.9999 23.5001 35.2499 15.0001 45.7499 15.0001 49.9998 23.5001 45.7499 32 35.2499 32Z" stroke="#000000" stroke-width="2.29167" stroke-miterlimit="8" fill="none" fill-rule="evenodd"/><path d="M0 24.0001 3.99999 16.0002 15.9999 16.0002 19.9999 24.0001 15.9999 32.0001 3.99999 32.0001Z" stroke="#000000" stroke-width="2.29167" stroke-miterlimit="8" fill="none" fill-rule="evenodd"/><path d="M15.0001 32.5002 19.2502 24.0001 30.75 24.0001 35.0001 32.5002 30.75 41.0003 19.2502 41.0003Z" stroke="#000000" stroke-width="2.29167" stroke-miterlimit="8" fill="#FFC000" fill-rule="evenodd"/><path d="M16.9998 32.0002 20.4999 25.0001 29.5 25.0001 33 32.0002 29.5 39.0003 20.4999 39.0003Z" fill="#FFC000" fill-rule="evenodd"/><rect x="15.0001" y="30.9999" width="19.9999" height="3.0001"/><rect x="17.9999" y="36.0001" width="15.0001" height="2.99974"/><rect x="17.9999" y="26.0001" width="15.0001" height="2.99974"/><g clip-path="url(#clip1)"><g clip-path="url(#clip2)"><g clip-path="url(#clip3)"><path d="M6.13539 12.8645 12.8645 12.8645 12.8645 6.13539 6.13539 6.13539ZM6.53122 6.53122 12.4687 6.53122 12.4687 12.4687 6.53122 12.4687Z" transform="matrix(1.05263 0 0 1 0 14.0001)"/><path d="M16.6249 5.73955 16.6249 5.34372 14.8437 5.34372 14.8437 5.14581C14.843 4.59954 14.4004 4.15688 13.8541 4.15623L13.6562 4.15623 13.6562 2.37499 13.2603 2.37499 13.2603 4.15623 12.0729 4.15623 12.0729 2.37499 11.677 2.37499 11.677 4.15623 10.4895 4.15623 10.4895 2.37499 10.0937 2.37499 10.0937 4.15623 8.9062 4.15623 8.9062 2.37499 8.51037 2.37499 8.51037 4.15623 7.32288 4.15623 7.32288 2.37499 6.92705 2.37499 6.92705 4.15623 5.73955 4.15623 5.73955 2.37499 5.34372 2.37499 5.34372 4.15623 5.14581 4.15623C4.59954 4.15688 4.15688 4.59954 4.15623 5.14581L4.15623 5.34372 2.37499 5.34372 2.37499 5.73955 4.15623 5.73955 4.15623 6.92705 2.37499 6.92705 2.37499 7.32288 4.15623 7.32288 4.15623 8.51037 2.37499 8.51037 2.37499 8.9062 4.15623 8.9062 4.15623 10.0937 2.37499 10.0937 2.37499 10.4895 4.15623 10.4895 4.15623 11.677 2.37499 11.677 2.37499 12.0729 4.15623 12.0729 4.15623 13.2603 2.37499 13.2603 2.37499 13.6562 4.15623 13.6562 4.15623 13.8541C4.15688 14.4004 4.59954 14.843 5.14581 14.8437L5.34372 14.8437 5.34372 16.6249 5.73955 16.6249 5.73955 14.8437 6.92705 14.8437 6.92705 16.6249 7.32288 16.6249 7.32288 14.8437 8.51037 14.8437 8.51037 16.6249 8.9062 16.6249 8.9062 14.8437 10.0937 14.8437 10.0937 16.6249 10.4895 16.6249 10.4895 14.8437 11.677 14.8437 11.677 16.6249 12.0729 16.6249 12.0729 14.8437 13.2603 14.8437 13.2603 16.6249 13.6562 16.6249 13.6562 14.8437 13.8541 14.8437C14.4004 14.843 14.843 14.4004 14.8437 13.8541L14.8437 13.6562 16.6249 13.6562 16.6249 13.2603 14.8437 13.2603 14.8437 12.0729 16.6249 12.0729 16.6249 11.677 14.8437 11.677 14.8437 10.4895 16.6249 10.4895 16.6249 10.0937 14.8437 10.0937 14.8437 8.9062 16.6249 8.9062 16.6249 8.51037 14.8437 8.51037 14.8437 7.32288 16.6249 7.32288 16.6249 6.92705 14.8437 6.92705 14.8437 5.73955ZM14.4478 13.8541C14.4478 14.182 14.182 14.4478 13.8541 14.4478L5.14581 14.4478C4.81788 14.4478 4.55206 14.182 4.55206 13.8541L4.55206 5.14581C4.55206 4.81788 4.81788 4.55206 5.14581 4.55206L13.8541 4.55206C14.182 4.55206 14.4478 4.81788 14.4478 5.14581Z" transform="matrix(1.05263 0 0 1 0 14.0001)"/></g></g></g><g clip-path="url(#clip4)"><g clip-path="url(#clip5)"><g clip-path="url(#clip6)"><path d="M6.13539 12.8645 12.8645 12.8645 12.8645 6.13539 6.13539 6.13539ZM6.53122 6.53122 12.4687 6.53122 12.4687 12.4687 6.53122 12.4687Z" transform="matrix(1.05263 0 0 1 30.9999 14.0001)"/><path d="M16.6249 5.73955 16.6249 5.34372 14.8437 5.34372 14.8437 5.14581C14.843 4.59954 14.4004 4.15688 13.8541 4.15623L13.6562 4.15623 13.6562 2.37499 13.2603 2.37499 13.2603 4.15623 12.0729 4.15623 12.0729 2.37499 11.677 2.37499 11.677 4.15623 10.4895 4.15623 10.4895 2.37499 10.0937 2.37499 10.0937 4.15623 8.9062 4.15623 8.9062 2.37499 8.51037 2.37499 8.51037 4.15623 7.32288 4.15623 7.32288 2.37499 6.92705 2.37499 6.92705 4.15623 5.73955 4.15623 5.73955 2.37499 5.34372 2.37499 5.34372 4.15623 5.14581 4.15623C4.59954 4.15688 4.15688 4.59954 4.15623 5.14581L4.15623 5.34372 2.37499 5.34372 2.37499 5.73955 4.15623 5.73955 4.15623 6.92705 2.37499 6.92705 2.37499 7.32288 4.15623 7.32288 4.15623 8.51037 2.37499 8.51037 2.37499 8.9062 4.15623 8.9062 4.15623 10.0937 2.37499 10.0937 2.37499 10.4895 4.15623 10.4895 4.15623 11.677 2.37499 11.677 2.37499 12.0729 4.15623 12.0729 4.15623 13.2603 2.37499 13.2603 2.37499 13.6562 4.15623 13.6562 4.15623 13.8541C4.15688 14.4004 4.59954 14.843 5.14581 14.8437L5.34372 14.8437 5.34372 16.6249 5.73955 16.6249 5.73955 14.8437 6.92705 14.8437 6.92705 16.6249 7.32288 16.6249 7.32288 14.8437 8.51037 14.8437 8.51037 16.6249 8.9062 16.6249 8.9062 14.8437 10.0937 14.8437 10.0937 16.6249 10.4895 16.6249 10.4895 14.8437 11.677 14.8437 11.677 16.6249 12.0729 16.6249 12.0729 14.8437 13.2603 14.8437 13.2603 16.6249 13.6562 16.6249 13.6562 14.8437 13.8541 14.8437C14.4004 14.843 14.843 14.4004 14.8437 13.8541L14.8437 13.6562 16.6249 13.6562 16.6249 13.2603 14.8437 13.2603 14.8437 12.0729 16.6249 12.0729 16.6249 11.677 14.8437 11.677 14.8437 10.4895 16.6249 10.4895 16.6249 10.0937 14.8437 10.0937 14.8437 8.9062 16.6249 8.9062 16.6249 8.51037 14.8437 8.51037 14.8437 7.32288 16.6249 7.32288 16.6249 6.92705 14.8437 6.92705 14.8437 5.73955ZM14.4478 13.8541C14.4478 14.182 14.182 14.4478 13.8541 14.4478L5.14581 14.4478C4.81788 14.4478 4.55206 14.182 4.55206 13.8541L4.55206 5.14581C4.55206 4.81788 4.81788 4.55206 5.14581 4.55206L13.8541 4.55206C14.182 4.55206 14.4478 4.81788 14.4478 5.14581Z" transform="matrix(1.05263 0 0 1 30.9999 14.0001)"/></g></g></g><path d="M13.9999 0C18.4182-2.16431e-15 22 3.80554 22 8.49992" stroke="#000000" stroke-width="2.29167" stroke-miterlimit="8" fill="none" fill-rule="evenodd"/><path d="M8.5001 0C13.1946-1.08218e-15 17.0002 3.58176 17.0002 8.00008" stroke="#000000" stroke-width="2.29167" stroke-miterlimit="8" fill="none" fill-rule="evenodd" transform="matrix(-1 0 0 1 45 0)"/></g></svg>