<svg xmlns="http://www.w3.org/2000/svg" xmlns:xlink="http://www.w3.org/1999/xlink" version="1.1" width="500" height="500" viewBox="0 0 500 500" xml:space="preserve">
<desc>Created with Fabric.js 4.6.0</desc>
<defs>
</defs>
<g transform="matrix(1 0 0 1 207.69 274.01)" id="cThYkrNPdbU1-A9crpRjb"  >
<path style="stroke: rgb(223,19,84); stroke-width: 0; stroke-dasharray: none; stroke-linecap: butt; stroke-dashoffset: 0; stroke-linejoin: miter; stroke-miterlimit: 4; fill: rgb(165,162,157); fill-rule: nonzero; opacity: 1;" vector-effect="non-scaling-stroke"  transform=" translate(-105.45, -71.9)" d="M 153.38713 143.79596 L 57.52080000000001 143.79596 L 7.105427357601002e-15 52.470150000000004 L 33.047880000000006 7.105427357601002e-15 L 56.770070000000004 41.08804000000001 L 130.04158 41.08804000000001 L 137.21051 52.470150000000004 L 210.90793 52.470150000000004 z" stroke-linecap="round" />
</g>
<g transform="matrix(1 0 0 1 343.92 193.58)" id="GFpWOenjHoJzfMeBDmTg4"  >
<path style="stroke: rgb(223,19,84); stroke-width: 0; stroke-dasharray: none; stroke-linecap: butt; stroke-dashoffset: 0; stroke-linejoin: miter; stroke-miterlimit: 4; fill: rgb(103,69,13); fill-rule: nonzero; opacity: 1;" vector-effect="non-scaling-stroke"  transform=" translate(-52.81, -91.33)" d="M 48.10883 0 L 105.62962999999999 91.32581 L 48.10882999999999 182.65162 L 25.93991999999999 182.65162 L 25.93991999999999 182.65162 L 1.329869999999989 143.57823000000002 L 42.11238999999999 72.94082000000002 L -7.105427357601002e-15 1.4210854715202004e-14 z" stroke-linecap="round" />
</g>
<g transform="matrix(1 0 0 1 456.69 163.11)" id="PYit7ELZymGZiB8J-9PDt"  >
<path style="stroke: rgb(223,19,84); stroke-width: 0; stroke-dasharray: none; stroke-linecap: butt; stroke-dashoffset: 0; stroke-linejoin: miter; stroke-miterlimit: 4; fill: rgb(165,162,157); fill-rule: nonzero; opacity: 1;" vector-effect="non-scaling-stroke"  transform=" translate(-40.43, -19.54)" d="M 7.16893 39.07339 L 0 27.691280000000003 L 40.26874 27.691280000000003 L 56.2563 3.552713678800501e-15 L 80.86635000000001 39.07339 L 80.86635000000001 39.07339 z" stroke-linecap="round" />
</g>
<g transform="matrix(1 0 0 1 150.66 160.65)" id="Pqw2yqIiMZLxYXZpJdTOF"  >
<path style="stroke: rgb(119,246,54); stroke-width: 0; stroke-dasharray: none; stroke-linecap: butt; stroke-dashoffset: 0; stroke-linejoin: miter; stroke-miterlimit: 4; fill: rgb(209,226,34); fill-rule: nonzero; opacity: 1;" vector-effect="non-scaling-stroke"  transform=" translate(-92.48, -77.78)" d="M 170.31033 0 L 184.96802 25.38787 L 137.21052 25.38787 L 79.68972 116.71368000000001 L 57.52081 116.71368000000001 L 33.047889999999995 155.56934 L -7.105427357601002e-15 98.32869000000001 L 56.77007999999999 1.4210854715202004e-14 z" stroke-linecap="round" />
</g>
<g transform="matrix(1 0 0 1 389.37 324.88)" id="hLU7NmLbq7ipimCfxKhPT"  >
<path style="stroke: rgb(223,19,84); stroke-width: 0; stroke-dasharray: none; stroke-linecap: butt; stroke-dashoffset: 0; stroke-linejoin: miter; stroke-miterlimit: 4; fill: rgb(165,162,157); fill-rule: nonzero; opacity: 1;" vector-effect="non-scaling-stroke"  transform=" translate(-48.5, -39.97)" d="M 46.64182 0 L 96.99369 79.9437 L 23.722179999999994 79.9437 L -0.00001000000000672685 38.85566000000001 L 24.47290999999999 7.105427357601002e-15 L 46.641819999999996 7.105427357601002e-15 z" stroke-linecap="round" />
</g>
<g transform="matrix(1 0 0 1 281.38 82.86)" id="MSBbAwKl7tAEPwQou5bPJ"  >
<path style="stroke: rgb(223,19,84); stroke-width: 0; stroke-dasharray: none; stroke-linecap: butt; stroke-dashoffset: 0; stroke-linejoin: miter; stroke-miterlimit: 4; fill: rgb(103,69,13); fill-rule: nonzero; opacity: 1;" vector-effect="non-scaling-stroke"  transform=" translate(-73.7, -71.79)" d="M 147.39069 72.94082 L 106.60817 143.57823000000002 L 73.69742 91.32581000000002 L 0 91.32581000000002 L 57.5208 1.4210854715202004e-14 L 105.2783 1.4210854715202004e-14 z" stroke-linecap="round" />
</g>
<g transform="matrix(1 0 0 1 403.39 85.54)" id="otKvEGWl2s3k3G-BV5vzG"  >
<path style="stroke: rgb(223,19,84); stroke-width: 0; stroke-dasharray: none; stroke-linecap: butt; stroke-dashoffset: 0; stroke-linejoin: miter; stroke-miterlimit: 4; fill: rgb(165,162,157); fill-rule: nonzero; opacity: 1;" vector-effect="non-scaling-stroke"  transform=" translate(-53.3, -39.97)" d="M 90.62061 79.9437 L 50.35187 79.9437 L 0 0 L 0 0 L 73.69742 0 L 106.60817 52.25242 z" stroke-linecap="round" />
</g>
</svg>